<?xml version="1.0" encoding="UTF-8"?>
<svg width="127px" height="26px" viewBox="0 0 127 26" version="1.1" xmlns="http://www.w3.org/2000/svg" xmlns:xlink="http://www.w3.org/1999/xlink">
    <title>IB Saver Logo</title>
    <defs>
        <polygon id="path-1" points="0 0 20 0 20 26 0 26"></polygon>
    </defs>
    <g id="History-Page" stroke="none" stroke-width="1" fill="none" fill-rule="evenodd">
        <g id="Default-Dark-Desktop" transform="translate(-345.000000, -16.000000)">
            <g id="IB-Saver-Logo" transform="translate(345.000000, 16.000000)">
                <path d="M0,23.2992974 C0,21.6541894 0.0694642553,20.4598036 0.156574672,18.676463 C0.260490957,16.7029478 0.434151595,14.7467466 0.625178297,12.7036963 C0.764386906,11.2666354 0.937767446,9.81226054 1.07669596,8.35816494 C1.25035659,6.64408029 1.42401723,5.3628453 1.64977606,3.7180166 C1.92763308,1.69255945 3.02141501,1 4.42806618,1 C6.14730649,1 7.15453819,2.263921 6.98059746,3.92578444 C6.82458298,5.3628453 6.58117799,6.83453414 6.39015129,8.5313048 C6.21677075,10.0373424 5.99101192,11.5263452 5.85208341,13.015348 C5.64341054,15.248573 5.45266394,16.8760877 5.34846756,18.7803469 C5.26163724,20.4251757 5.17480692,22.0873183 5.07089063,23.4897512 C4.96613406,24.9957888 4.06365893,26 2.53516522,26 C1.05904979,26 0,25.3593825 0,23.2992974" id="Fill-1" fill="#71A5DE"></path>
                <g id="Group-5" transform="translate(10.000000, 0.000000)">
                    <mask id="mask-2" fill="white">
                        <use xlink:href="#path-1"></use>
                    </mask>
                    <g id="Clip-4"></g>
                    <path d="M9.10257153,9.6687072 C11.5081663,9.10612629 12.7111085,8.03370643 12.7111085,6.41656987 C12.7111085,5.08044021 11.8313448,4.482698 10.0179544,4.482698 C9.19234333,4.482698 8.25871655,4.62334323 7.34304413,4.83431107 C7.23531797,5.95947289 7.07372872,7.24257703 6.93009383,8.29769979 L6.71464149,9.98515896 C7.43281594,9.79177177 8.27638133,9.70386851 9.10257153,9.6687072 M14.2010309,17.7027823 C14.2010309,15.5579425 12.8726978,14.4855227 10.0179544,14.3624581 C8.63575814,14.5382646 7.32480019,14.520684 6.24811769,14.2218129 L6.14010193,15.1887488 C5.96055832,17.10504 5.72715163,18.9507251 5.51169929,20.8670163 C7.03781999,21.2537907 8.50978802,21.4996363 10.0002896,21.4996363 C12.7290629,21.4996363 14.2010309,20.1637902 14.2010309,17.7027823 M4.48830071,24.5762506 C4.0217769,25.0333476 3.39337426,25.2440319 2.69315418,25.2440319 C1.25680528,25.2440319 0.05415267,24.4356054 0.05415267,22.6599594 C0.05415267,21.0249586 0.448859029,18.0541118 0.843565389,15.1535875 C1.13112475,13.0614898 1.45430325,10.6004818 1.72390826,8.50838407 L2.01088845,6.2935053 C0.789991892,6.22318269 0,5.2738274 0,4.2541495 C0,3.58608467 0.359087223,2.88285854 1.18498784,2.40846445 C3.80632457,0.914108911 7.75599444,-8.50676779e-05 11.0595969,-8.50676779e-05 C15.6194255,-8.50676779e-05 18.7431947,1.63463214 18.7431947,5.43205328 C18.7431947,8.01612578 16.9121395,10.1785461 14.1651222,11.3388693 C17.8996293,12.2003213 20,14.3097161 20,17.7203629 C20,22.7657269 16.3375999,26 10.5386308,26 C8.16865516,26 6.12214757,25.3846771 4.48830071,24.5762506" id="Fill-3" fill="#71A5DE" mask="url(#mask-2)"></path>
                </g>
                <path d="M38.2353167,20.652663 C38.0723154,20.1884007 38,19.7413332 38,19.3286556 C38,18.0218431 38.7773907,17.0245388 40.2598567,17.0245388 C41.4714314,17.0245388 42.3389248,17.6951399 42.9713931,18.9675627 C43.911785,20.8761967 45.0866189,21.6843571 46.7860311,21.6843571 C48.648153,21.6843571 50.1122485,20.8418069 50.1122485,19.3114607 C50.1122485,17.6607501 48.2320478,16.8012824 46.1532712,15.7867832 C43.4052855,14.4455809 40.3321721,12.691701 40.3321721,8.29008353 C40.3321721,3.47578847 44.8515938,1 48.9916512,1 C52.2271827,1 55.0474838,1.89413487 56.3491613,3.47578847 C56.8011326,4.00883041 57,4.64504177 57,5.24686332 C57,6.62245543 56.1141362,7.67106708 54.5593548,7.67106708 C53.2218113,7.67106708 51.7935819,6.86318405 51.648951,5.59076135 C50.9800335,5.38442253 50.2571709,5.22966842 49.4436225,5.22966842 C47.3103178,5.22966842 45.9182461,6.2957523 45.9182461,7.86048834 C45.9182461,9.87201447 47.90692,10.7489544 50.1303274,11.7806485 C52.7876272,13.0184041 55.7164014,14.5831401 55.7164014,18.8128085 C55.7164014,23.1287288 51.9204254,26 46.8402677,26 C42.9897635,26 39.4465999,24.0397812 38.2353167,20.652663" id="Fill-6" fill="#71A5DE"></path>
                <path d="M67.6912359,12.5344795 C67.4614946,12.4802791 67.1966935,12.4441454 66.9489948,12.4441454 C64.4751429,12.4441454 62.6728425,15.497146 62.2484197,17.954233 C62.1070405,18.8033734 61.9836187,20.0680505 62.6548851,20.0680505 C63.3971261,20.0680505 65.305746,19.1827765 67.6912359,12.5344795 M57,19.7428478 C57,14.0520921 61.1530155,8 67.0373569,8 C68.0977012,8 69.1580456,8.27100225 69.9356315,8.66847221 C70.1123556,8.65040539 70.3067521,8.63233857 70.5008635,8.63233857 C72.1797421,8.63233857 73.0810349,9.64408029 73.0810349,11.5408046 C73.0810349,12.4802791 72.868966,13.6184885 72.4271558,14.9734997 C72.3390788,15.7865065 72.2857766,17.0147586 72.2857766,17.7735649 C72.2857766,18.7130393 72.3390788,19.6886474 72.4097684,20.1583846 C72.5155178,20.2487187 72.6922419,20.3571196 73.1870693,20.8449236 C73.7525863,21.3866367 74,22.0189753 74,22.5971134 C74,23.8437238 72.9043108,24.9277327 71.2787344,24.9277327 C69.6882178,24.9277327 68.6278734,23.8979242 68.1860633,23.1755429 C67.8505726,22.6332471 67.6028739,21.9108658 67.479167,21.0433672 C65.5882195,24.1508596 63.4678158,25 61.4531614,25 C58.6788786,25 57,23.0668506 57,19.7428478" id="Fill-8" fill="#71A5DE"></path>
                <path d="M78.7759222,23.1198606 C78.4333008,21.3017727 77.9644505,19.3759698 77.5136328,17.3238705 C76.9906844,14.8940433 76.5581903,13.2919657 76.1792126,11.8878978 C75.5841333,9.69208187 76.5038013,8.10800523 78.4513335,8.10800523 C79.9480481,8.10800523 81.0300104,8.61202961 81.6428315,10.7181315 C82.0398419,12.0859074 82.4543033,14.5340258 82.6709866,16.1718148 C82.8152482,17.3238705 82.9595099,18.4759263 83.0493825,19.5379776 C83.5545892,18.7999419 84.0051159,18.0799071 84.3297046,17.4858783 C85.4296997,15.5057825 86.5477274,12.8959466 87.376941,10.6641289 C88.0264093,8.93604529 88.8556229,8 90.5146318,8 C93.0933086,8 93.2375703,10.2861106 92.8228181,11.5458813 C91.8670847,14.4620224 89.9375852,17.953901 88.5310342,20.0417117 C87.4490718,21.6620804 86.4755966,22.9218511 85.5559286,23.8938981 C84.3297046,25.1719599 83.085448,26 81.5707007,26 C80.074277,26 78.9385074,25.4959756 78.7759222,23.1198606" id="Fill-10" fill="#71A5DE"></path>
                <path d="M105.546084,13.5482607 C105.546084,12.9518365 105.021236,12.7530284 104.234247,12.7530284 C102.729684,12.7530284 101.189849,13.5663341 100.210415,14.9757725 C100.997687,15.1025782 101.802171,15.1567986 102.484473,15.1567986 C104.583863,15.1567986 105.546084,14.3615664 105.546084,13.5482607 M94,18.1205545 C94,12.5361469 98.3212457,8 103.936551,8 C108.379979,8 111.336621,10.006154 110.969228,13.7109218 C110.619329,17.2891754 106.980668,19.042301 103.394209,19.042301 C101.977402,19.042301 100.472839,18.807346 99.2134867,18.3555095 C99.2831842,20.3435901 100.577808,21.2472631 102.292311,21.2472631 C103.936551,21.2472631 105.406125,20.6505474 106.595779,20.2348578 C108.904827,19.4215521 109.674603,21.933763 108.502726,23.4880806 C107.418041,24.9336659 105.441115,26 102.309524,26 C97.3587428,26 94,22.8913649 94,18.1205545" id="Fill-12" fill="#71A5DE"></path>
                <path d="M112,22.2124141 C112,21.9755604 112.017423,21.7204872 112.052549,21.4471944 C112.557523,17.5849509 112.993087,13.9231221 113.411229,9.56895172 C113.585455,7.6923416 114.735064,7 116.007194,7 C117.487832,7 118.655145,8.02029288 118.498342,9.95126769 C118.446074,10.6618288 118.358961,11.3541704 118.271848,11.9918535 L118.533187,11.5545851 C119.892149,9.3864627 121.599281,7.89275627 123.672568,7.89275627 C124.717923,7.89275627 125.553926,8.22070756 126.128871,8.730854 C126.72152,9.27743947 127,10.0059262 127,10.7164874 C127,11.9736339 126.163716,13.139683 124.822458,13.139683 C124.63081,13.139683 124.421739,13.1214634 124.194964,13.0668049 C123.916484,12.9939268 123.515765,12.9392683 123.237003,12.9392683 C122.226775,12.9392683 121.076884,14.0870978 119.961839,15.8176579 C118.829371,17.5849509 117.766594,19.953488 117.06969,22.4495617 C116.8609,24.3076584 115.693587,25 114.474007,25 C113.062777,25 112,24.0890242 112,22.2124141" id="Fill-14" fill="#71A5DE"></path>
            </g>
        </g>
    </g>
</svg>